<svg
        xmlns="http://www.w3.org/2000/svg"
        xmlns:xlink="http://www.w3.org/1999/xlink"
        width="14px" height="8px">
    <path fill-rule="evenodd"  fill="rgb(255, 25, 47)"
          d="M13.306,7.779 C13.161,7.919 12.969,7.996 12.764,7.996 C12.558,7.996 12.366,7.919 12.222,7.779 L6.987,2.716 L1.746,7.785 C1.602,7.924 1.409,8.001 1.204,8.001 C0.999,8.001 0.807,7.924 0.662,7.785 L0.203,7.341 C-0.096,7.052 -0.096,6.581 0.203,6.293 L6.443,0.236 C6.587,0.097 6.779,-0.001 6.986,-0.001 L6.989,-0.001 C7.194,-0.001 7.386,0.097 7.530,0.236 L13.764,6.276 C13.909,6.416 13.988,6.607 13.988,6.805 C13.988,7.004 13.909,7.193 13.764,7.332 L13.306,7.779 ZM6.989,0.148 L6.989,0.148 L6.989,0.148 L6.989,0.148 Z"/>
</svg>