<svg
        xmlns="http://www.w3.org/2000/svg"
        xmlns:xlink="http://www.w3.org/1999/xlink"
        width="14px" height="9px">
    <path fill-rule="evenodd"  fill="rgb(27, 70, 85)"
          d="M12.923,0.720 C12.783,0.581 12.597,0.504 12.399,0.504 C12.201,0.504 12.015,0.581 11.875,0.720 L6.815,5.783 L1.750,0.715 C1.611,0.575 1.425,0.498 1.227,0.498 C1.028,0.498 0.842,0.575 0.703,0.715 L0.259,1.159 C-0.030,1.448 -0.030,1.918 0.259,2.207 L6.290,8.263 C6.429,8.403 6.615,8.501 6.815,8.501 L6.817,8.501 C7.016,8.501 7.201,8.402 7.341,8.263 L13.366,2.223 C13.506,2.084 13.582,1.892 13.583,1.694 C13.583,1.495 13.506,1.306 13.366,1.167 L12.923,0.720 ZM6.817,8.351 L6.817,8.351 L6.817,8.352 L6.817,8.351 Z"/>
</svg>