<svg
        xmlns="http://www.w3.org/2000/svg"
        xmlns:xlink="http://www.w3.org/1999/xlink"
        width="8px" height="14px">
    <path fill-rule="evenodd"  fill="rgb(255, 255, 255)"
          d="M7.779,0.693 C7.919,0.837 7.996,1.029 7.996,1.233 C7.996,1.438 7.919,1.630 7.779,1.774 L2.716,6.997 L7.785,12.226 C7.924,12.370 8.001,12.562 8.001,12.767 C8.001,12.972 7.924,13.164 7.785,13.308 L7.341,13.766 C7.052,14.064 6.581,14.064 6.293,13.766 L0.236,7.540 C0.097,7.396 -0.001,7.204 -0.001,6.998 L-0.001,6.995 C-0.001,6.790 0.097,6.599 0.236,6.455 L6.276,0.235 C6.416,0.091 6.607,0.012 6.805,0.011 C7.004,0.011 7.193,0.091 7.332,0.235 L7.779,0.693 ZM0.148,6.995 L0.148,6.995 L0.148,6.995 L0.148,6.995 Z"/>
</svg>