<svg
        xmlns="http://www.w3.org/2000/svg"
        xmlns:xlink="http://www.w3.org/1999/xlink"
        width="40px" height="40px">
    <path fill-rule="evenodd"  fill="rgb(255, 25, 47)"
          d="M39.213,33.746 L37.594,33.746 C37.631,34.003 37.651,34.264 37.651,34.527 C37.651,37.541 35.198,39.993 32.184,39.993 C29.169,39.993 26.716,37.541 26.716,34.527 C26.716,34.264 26.736,33.995 26.773,33.737 L15.257,33.737 C15.294,33.995 15.314,34.264 15.314,34.527 C15.314,37.541 12.861,39.993 9.847,39.993 C6.832,39.993 4.380,37.541 4.380,34.527 C4.380,34.264 4.400,34.003 4.437,33.746 L0.787,33.746 C0.356,33.746 0.006,33.396 0.006,32.965 C0.006,32.533 0.356,32.184 0.787,32.184 L1.568,32.184 L1.568,13.752 C1.568,12.460 2.619,11.409 3.911,11.409 L9.847,11.409 L9.847,8.597 C9.847,6.444 11.599,4.692 13.752,4.692 C15.910,4.692 17.657,6.440 17.657,8.597 L17.657,11.409 L24.374,11.409 C25.665,11.409 26.716,12.460 26.716,13.752 L26.716,15.001 L31.370,15.001 C32.135,15.001 32.852,15.375 33.290,16.001 L37.726,22.338 C38.166,22.965 38.432,23.743 38.432,24.577 L38.432,32.184 L39.213,32.184 C39.644,32.184 39.994,32.533 39.994,32.965 C39.994,33.396 39.644,33.746 39.213,33.746 ZM9.847,38.431 C12.000,38.431 13.752,36.680 13.752,34.527 C13.752,32.373 11.999,30.621 9.847,30.621 C7.702,30.621 5.942,32.366 5.942,34.527 C5.942,36.680 7.694,38.431 9.847,38.431 ZM16.095,8.597 C16.095,7.303 15.046,6.254 13.752,6.254 C12.460,6.254 11.409,7.305 11.409,8.597 L11.409,11.409 L16.095,11.409 L16.095,8.597 ZM25.154,13.752 C25.154,13.321 24.804,12.971 24.374,12.971 L3.911,12.971 C3.481,12.971 3.130,13.321 3.130,13.752 L3.130,32.184 L4.909,32.184 C5.806,30.294 7.725,29.059 9.847,29.059 C11.968,29.059 13.887,30.294 14.785,32.184 L25.154,32.184 C25.154,31.820 25.154,14.807 25.154,13.752 ZM32.184,38.431 C34.337,38.431 36.089,36.680 36.089,34.527 C36.089,34.080 36.013,33.643 35.866,33.225 C35.866,33.225 35.866,33.225 35.866,33.225 C35.314,31.668 33.834,30.621 32.184,30.621 C30.043,30.621 28.279,32.361 28.279,34.527 C28.279,36.680 30.030,38.431 32.184,38.431 ZM32.010,16.896 C31.864,16.688 31.625,16.563 31.370,16.563 L26.716,16.563 L26.716,21.707 L28.507,19.916 C28.812,19.611 29.307,19.611 29.612,19.916 C29.917,20.221 29.917,20.716 29.612,21.021 L27.821,22.811 L36.151,22.811 L32.010,16.896 ZM36.870,24.577 C36.870,24.509 36.866,24.441 36.860,24.373 L26.716,24.373 L26.716,32.184 L27.245,32.184 C28.143,30.294 30.062,29.059 32.184,29.059 C34.123,29.059 35.894,30.092 36.870,31.712 L36.870,24.577 ZM33.746,27.497 C33.314,27.497 32.965,27.148 32.965,26.716 C32.965,26.285 33.314,25.935 33.746,25.935 C34.177,25.935 34.527,26.285 34.527,26.716 C34.527,27.148 34.177,27.497 33.746,27.497 ZM30.622,27.497 L29.060,27.497 C28.628,27.497 28.279,27.148 28.279,26.716 C28.279,26.285 28.628,25.935 29.060,25.935 L30.622,25.935 C31.053,25.935 31.403,26.285 31.403,26.716 C31.403,27.148 31.053,27.497 30.622,27.497 ZM32.184,32.184 C33.475,32.184 34.527,33.235 34.527,34.527 C34.527,35.818 33.475,36.870 32.184,36.870 C30.892,36.870 29.841,35.818 29.841,34.527 C29.841,33.235 30.892,32.184 32.184,32.184 ZM32.184,35.308 C32.614,35.308 32.965,34.957 32.965,34.527 C32.965,34.096 32.614,33.746 32.184,33.746 C31.753,33.746 31.403,34.096 31.403,34.527 C31.403,34.957 31.753,35.308 32.184,35.308 ZM11.409,26.716 L11.409,24.373 L9.066,24.373 C8.635,24.373 8.285,24.024 8.285,23.592 L8.285,20.468 C8.285,20.037 8.635,19.687 9.066,19.687 L11.409,19.687 L11.409,17.344 C11.409,16.913 11.759,16.563 12.190,16.563 L15.314,16.563 C15.745,16.563 16.095,16.913 16.095,17.344 L16.095,19.687 L18.438,19.687 C18.869,19.687 19.219,20.037 19.219,20.468 L19.219,23.592 C19.219,24.024 18.869,24.373 18.438,24.373 L16.095,24.373 L16.095,26.716 C16.095,27.148 15.745,27.497 15.314,27.497 L12.190,27.497 C11.759,27.497 11.409,27.148 11.409,26.716 ZM12.971,23.592 L12.971,25.935 L14.533,25.935 L14.533,23.592 C14.533,23.161 14.883,22.811 15.314,22.811 L17.657,22.811 L17.657,21.249 L15.314,21.249 C14.883,21.249 14.533,20.900 14.533,20.468 L14.533,18.125 L12.971,18.125 L12.971,20.468 C12.971,20.900 12.621,21.249 12.190,21.249 L9.847,21.249 L9.847,22.811 L12.190,22.811 C12.621,22.811 12.971,23.161 12.971,23.592 ZM9.847,32.184 C11.139,32.184 12.190,33.235 12.190,34.527 C12.190,35.818 11.139,36.870 9.847,36.870 C8.555,36.870 7.504,35.818 7.504,34.527 C7.504,33.235 8.555,32.184 9.847,32.184 ZM9.847,35.308 C10.278,35.308 10.628,34.957 10.628,34.527 C10.628,34.096 10.278,33.746 9.847,33.746 C9.416,33.746 9.066,34.096 9.066,34.527 C9.066,34.957 9.416,35.308 9.847,35.308 ZM21.562,9.378 L20.000,9.378 C19.569,9.378 19.219,9.028 19.219,8.597 C19.219,8.166 19.569,7.816 20.000,7.816 L21.562,7.816 C21.993,7.816 22.343,8.166 22.343,8.597 C22.343,9.028 21.993,9.378 21.562,9.378 ZM18.722,4.731 C18.417,5.036 17.923,5.036 17.618,4.731 C17.313,4.426 17.313,3.932 17.618,3.627 L18.722,2.523 C19.027,2.217 19.522,2.217 19.827,2.523 C20.132,2.828 20.132,3.322 19.827,3.627 L18.722,4.731 ZM13.752,3.130 C13.321,3.130 12.971,2.781 12.971,2.349 L12.971,0.787 C12.971,0.356 13.321,0.006 13.752,0.006 C14.183,0.006 14.533,0.356 14.533,0.787 L14.533,2.349 C14.533,2.781 14.183,3.130 13.752,3.130 ZM8.782,4.731 L7.677,3.627 C7.372,3.322 7.372,2.827 7.677,2.522 C7.982,2.217 8.477,2.217 8.782,2.522 L9.886,3.627 C10.191,3.932 10.191,4.426 9.886,4.731 C9.581,5.036 9.087,5.036 8.782,4.731 ZM8.285,8.597 C8.285,9.028 7.935,9.378 7.504,9.378 L5.942,9.378 C5.511,9.378 5.161,9.028 5.161,8.597 C5.161,8.166 5.511,7.816 5.942,7.816 L7.504,7.816 C7.935,7.816 8.285,8.166 8.285,8.597 Z"/>
</svg>