<svg
        xmlns="http://www.w3.org/2000/svg"
        xmlns:xlink="http://www.w3.org/1999/xlink"
        width="42px" height="41px">
    <path fill-rule="evenodd"  fill="rgb(255, 25, 47)"
          d="M39.364,40.825 C38.404,40.990 37.465,40.439 37.141,39.520 L4.858,39.520 C4.535,40.439 3.595,40.990 2.636,40.825 C1.675,40.660 0.974,39.827 0.976,38.854 L0.976,20.177 C0.976,19.072 1.873,18.176 2.979,18.176 C4.085,18.176 4.981,19.072 4.981,20.177 L4.981,27.514 L6.550,27.514 C6.398,27.202 6.318,26.861 6.316,26.514 C6.316,25.224 7.362,24.179 8.652,24.179 L13.324,24.179 C14.614,24.179 15.660,25.224 15.660,26.514 C15.658,26.861 15.578,27.202 15.426,27.514 L37.019,27.514 L37.019,25.513 C37.019,24.408 37.915,23.513 39.021,23.513 C40.127,23.513 41.023,24.408 41.023,25.513 L41.023,38.854 C41.026,39.827 40.324,40.660 39.364,40.825 ZM3.646,20.177 C3.646,19.809 3.347,19.510 2.979,19.510 C2.610,19.510 2.311,19.809 2.311,20.177 L2.311,38.854 C2.311,39.222 2.610,39.520 2.979,39.520 C3.347,39.520 3.646,39.222 3.646,38.854 L3.646,20.177 ZM13.324,25.513 L8.652,25.513 C8.099,25.513 7.651,25.961 7.651,26.514 C7.651,27.067 8.099,27.514 8.652,27.514 L13.324,27.514 C13.877,27.514 14.325,27.067 14.325,26.514 C14.325,25.961 13.877,25.513 13.324,25.513 ZM37.019,28.848 L12.990,28.848 L12.990,34.184 C12.990,34.553 13.289,34.851 13.658,34.851 L37.019,34.851 L37.019,28.848 ZM37.019,36.185 L13.658,36.185 C12.552,36.185 11.655,35.290 11.655,34.184 L11.655,28.848 L4.981,28.848 L4.981,38.186 L37.019,38.186 L37.019,36.185 ZM39.688,25.513 C39.688,25.145 39.390,24.846 39.021,24.846 C38.653,24.846 38.354,25.145 38.354,25.513 L38.354,38.854 C38.354,39.222 38.653,39.520 39.021,39.520 C39.390,39.520 39.688,39.222 39.688,38.854 L39.688,25.513 ZM14.993,30.183 L29.677,30.183 C30.045,30.183 30.344,30.481 30.344,30.849 C30.344,31.218 30.045,31.516 29.677,31.516 L14.993,31.516 C14.624,31.516 14.325,31.218 14.325,30.849 C14.325,30.481 14.624,30.183 14.993,30.183 ZM32.347,30.183 C32.715,30.183 33.014,30.481 33.014,30.849 C33.014,31.218 32.715,31.516 32.347,31.516 C31.978,31.516 31.679,31.218 31.679,30.849 C31.679,30.481 31.978,30.183 32.347,30.183 ZM21.000,22.179 C15.105,22.171 10.328,17.397 10.321,11.506 C10.321,5.612 15.102,0.834 21.000,0.834 C26.898,0.834 31.679,5.612 31.679,11.506 C31.679,17.400 26.898,22.179 21.000,22.179 ZM21.000,2.168 C15.842,2.173 11.661,6.351 11.655,11.506 C11.655,16.663 15.839,20.844 21.000,20.844 C26.161,20.844 30.344,16.663 30.344,11.506 C30.344,6.349 26.161,2.168 21.000,2.168 ZM25.672,14.174 L23.670,14.174 L23.670,16.175 C23.670,16.912 23.072,17.509 22.335,17.509 L19.665,17.509 C18.928,17.509 18.330,16.912 18.330,16.175 L18.330,14.174 L16.328,14.174 C15.590,14.174 14.993,13.577 14.993,12.840 L14.993,10.172 C14.993,9.435 15.590,8.838 16.328,8.838 L18.330,8.838 L18.330,6.837 C18.330,6.100 18.928,5.503 19.665,5.503 L22.335,5.503 C23.072,5.503 23.670,6.100 23.670,6.837 L23.670,8.838 L25.672,8.838 C26.410,8.838 27.007,9.435 27.007,10.172 L27.007,12.840 C27.007,13.577 26.410,14.174 25.672,14.174 ZM25.672,10.172 L23.670,10.172 C22.932,10.172 22.335,9.575 22.335,8.838 L22.335,6.837 L19.665,6.837 L19.665,8.838 C19.665,9.575 19.067,10.172 18.330,10.172 L16.328,10.172 L16.328,12.840 L18.330,12.840 C19.067,12.840 19.665,13.438 19.665,14.174 L19.665,16.175 L22.335,16.175 L22.335,14.174 C22.335,13.438 22.932,12.840 23.670,12.840 L25.672,12.840 L25.672,10.172 Z"/>
</svg>