<?xml version="1.0" encoding="utf-8"?>
<!-- Generator: Adobe Illustrator 22.0.1, SVG Export Plug-In . SVG Version: 6.00 Build 0)  -->
<svg version="1.1" id="icons" xmlns="http://www.w3.org/2000/svg" xmlns:xlink="http://www.w3.org/1999/xlink" x="0px" y="0px"
	 width="16px" height="15px" viewBox="0 0 16 15" style="enable-background:new 0 0 16 15;" xml:space="preserve">
<style type="text/css">
	.st0{fill:#FFFFFF;}
</style>
<g>
	<path class="st0" d="M16,2c0,0.6-0.4,1-1,1H1C0.4,3,0,2.6,0,2V1c0-0.6,0.4-1,1-1h14c0.6,0,1,0.4,1,1V2z"/>
	<path class="st0" d="M16,8c0,0.6-0.4,1-1,1H1C0.4,9,0,8.6,0,8V7c0-0.6,0.4-1,1-1h14c0.6,0,1,0.4,1,1V8z"/>
	<path class="st0" d="M16,14c0,0.6-0.4,1-1,1H1c-0.6,0-1-0.4-1-1v-1c0-0.6,0.4-1,1-1h14c0.6,0,1,0.4,1,1V14z"/>
</g>
</svg>
