<svg
        xmlns="http://www.w3.org/2000/svg"
        xmlns:xlink="http://www.w3.org/1999/xlink"
        width="21px" height="20px">
    <path fill-rule="evenodd"  fill="rgb(255, 25, 47)"
          d="M13.018,10.000 L20.504,2.518 C20.710,2.313 20.823,2.038 20.824,1.745 C20.824,1.452 20.710,1.176 20.504,0.971 L19.848,0.315 C19.641,0.109 19.366,-0.004 19.073,-0.004 C18.780,-0.004 18.505,0.109 18.299,0.315 L10.813,7.796 L3.326,0.315 C3.120,0.109 2.845,-0.004 2.552,-0.004 C2.259,-0.004 1.984,0.109 1.778,0.315 L1.121,0.971 C0.694,1.398 0.694,2.092 1.121,2.518 L8.608,10.000 L1.121,17.481 C0.916,17.687 0.802,17.962 0.802,18.255 C0.802,18.547 0.916,18.822 1.121,19.028 L1.778,19.684 C1.984,19.890 2.259,20.003 2.552,20.003 C2.845,20.003 3.120,19.890 3.326,19.684 L10.812,12.203 L18.299,19.684 C18.505,19.890 18.780,20.003 19.073,20.003 L19.073,20.003 C19.366,20.003 19.641,19.890 19.847,19.684 L20.503,19.028 C20.709,18.822 20.823,18.547 20.823,18.255 C20.823,17.962 20.709,17.687 20.503,17.481 L13.018,10.000 Z"/>
</svg>