<svg
        xmlns="http://www.w3.org/2000/svg"
        xmlns:xlink="http://www.w3.org/1999/xlink"
        width="39px" height="40px">
    <path fill-rule="evenodd"  fill="rgb(255, 25, 47)"
          d="M38.295,39.086 C36.703,36.791 34.850,34.122 33.458,32.121 C33.273,31.855 32.908,31.790 32.642,31.975 C32.376,32.159 32.310,32.525 32.495,32.790 C33.704,34.528 35.262,36.771 36.693,38.834 L28.361,38.834 C26.975,36.777 25.977,35.288 25.393,34.406 C25.035,33.865 24.439,33.534 23.798,33.522 C22.663,33.500 21.397,32.783 20.325,31.555 C19.467,30.572 18.886,29.463 18.272,28.289 C18.017,27.800 17.766,27.321 17.522,26.824 C17.093,25.952 16.657,25.073 16.048,24.310 C15.631,23.788 15.082,23.331 14.578,22.887 C14.088,22.430 14.038,21.668 14.465,21.151 C14.904,20.618 15.700,20.535 16.237,20.964 L18.987,23.184 C19.805,23.951 20.626,24.826 21.101,25.856 C21.200,26.070 21.412,26.196 21.634,26.196 C21.716,26.196 21.800,26.179 21.879,26.143 C22.173,26.007 22.302,25.659 22.166,25.365 C21.779,24.526 21.106,23.700 20.621,23.165 L20.621,18.624 C20.621,18.624 24.435,20.522 24.710,20.671 C25.431,21.059 26.177,21.461 26.861,21.886 C27.832,22.490 28.465,23.034 28.913,23.649 C29.417,24.341 29.612,25.182 29.566,26.463 C29.561,26.605 29.548,26.754 29.536,26.912 C29.476,27.634 29.403,28.530 30.029,29.258 C30.070,29.315 30.249,29.567 30.938,30.554 C31.123,30.820 31.489,30.885 31.755,30.700 C32.020,30.515 32.085,30.149 31.900,29.884 C30.975,28.559 30.956,28.537 30.924,28.501 C30.632,28.169 30.646,27.715 30.704,27.008 C30.718,26.844 30.732,26.674 30.738,26.506 C30.776,25.467 30.710,24.124 29.861,22.959 C29.167,22.007 28.224,21.354 27.481,20.892 C26.766,20.446 26.003,20.036 25.267,19.639 C24.994,19.492 20.621,17.330 20.621,17.330 L20.621,15.229 C20.621,13.101 19.518,11.209 17.513,9.900 C17.315,9.770 17.197,9.548 17.197,9.308 L17.256,0.583 C17.257,0.427 17.196,0.277 17.086,0.166 C16.975,0.056 16.826,-0.007 16.669,-0.007 L8.996,-0.007 C8.673,-0.007 8.412,0.253 8.409,0.575 L8.394,2.788 C8.392,3.112 8.652,3.376 8.976,3.378 C9.301,3.377 9.564,3.120 9.566,2.796 L9.578,1.166 L16.079,1.166 L16.024,9.304 C16.024,9.944 16.341,10.534 16.872,10.881 C18.534,11.966 19.449,13.510 19.449,15.229 L19.449,22.045 C19.445,22.043 19.440,22.042 19.436,22.040 L16.972,20.051 C15.934,19.222 14.404,19.381 13.559,20.406 C12.737,21.404 12.837,22.873 13.787,23.751 C13.790,23.754 13.794,23.758 13.797,23.761 C14.190,24.107 14.594,24.425 14.942,24.816 C15.380,25.307 15.719,25.876 16.024,26.456 L16.024,30.154 C16.024,31.130 14.835,31.703 14.112,30.999 C13.892,30.784 13.771,30.498 13.771,30.192 L13.771,25.834 C13.771,25.510 13.509,25.248 13.185,25.248 C12.861,25.248 12.599,25.510 12.599,25.834 L12.599,31.189 C12.598,31.816 12.107,32.338 11.502,32.353 C11.197,32.361 10.906,32.248 10.686,32.034 C10.467,31.820 10.346,31.534 10.346,31.228 L10.346,20.824 C10.346,20.500 10.084,20.238 9.760,20.238 C9.436,20.238 9.174,20.500 9.174,20.824 L9.174,29.177 C9.174,29.974 8.397,30.515 7.654,30.217 C7.216,30.041 6.921,29.612 6.921,29.139 C6.921,29.113 6.921,17.434 6.921,17.434 C6.921,17.195 6.776,16.980 6.555,16.891 C6.333,16.801 6.080,16.855 5.914,17.027 L5.035,17.933 C4.256,18.737 2.997,18.830 2.108,18.151 C2.051,18.107 2.039,18.027 2.081,17.969 L2.294,17.675 C3.215,16.401 4.167,15.084 5.236,13.919 C6.071,13.009 7.089,12.266 7.883,11.721 C8.247,11.472 8.660,11.169 8.970,10.736 C9.326,10.237 9.522,9.627 9.522,9.022 C9.523,9.008 9.533,7.156 9.544,5.477 C9.547,5.154 9.286,4.889 8.962,4.887 C8.636,4.885 8.374,5.146 8.372,5.469 C8.360,7.171 8.350,9.015 8.350,9.019 C8.350,9.379 8.228,9.757 8.015,10.055 C7.817,10.333 7.500,10.562 7.219,10.755 C6.374,11.336 5.287,12.129 4.371,13.127 C3.256,14.343 2.284,15.688 1.344,16.989 L1.131,17.282 C0.714,17.859 0.830,18.650 1.396,19.082 C2.709,20.086 4.549,19.988 5.748,18.875 L5.748,29.139 C5.748,30.395 6.753,31.443 7.987,31.475 C8.410,31.485 8.816,31.383 9.174,31.182 L9.174,31.228 C9.174,31.853 9.420,32.438 9.868,32.874 C10.301,33.296 10.868,33.526 11.472,33.526 C11.492,33.526 11.512,33.525 11.533,33.525 C12.457,33.501 13.251,32.909 13.593,32.085 C13.990,32.360 14.463,32.502 14.958,32.489 C16.192,32.457 17.196,31.410 17.196,30.154 L17.196,28.762 C17.196,28.762 18.492,31.238 19.441,32.325 C20.199,33.193 21.770,34.655 23.776,34.694 C24.031,34.699 24.270,34.833 24.415,35.053 C25.025,35.974 26.084,37.554 27.562,39.748 C27.672,39.909 27.854,40.006 28.049,40.006 L37.813,40.006 C38.031,40.006 38.232,39.885 38.333,39.692 C38.434,39.499 38.419,39.265 38.295,39.086 L38.295,39.086 Z"/>
</svg>