<svg
        xmlns="http://www.w3.org/2000/svg"
        xmlns:xlink="http://www.w3.org/1999/xlink"
        width="36px" height="36px">
    <path fill-rule="evenodd"  fill="rgb(255, 255, 255)"
          d="M32.079,35.496 L3.921,35.496 C2.036,35.496 0.504,33.963 0.504,32.079 L0.504,3.921 C0.504,2.036 2.036,0.503 3.921,0.503 L32.079,0.503 C33.963,0.503 35.496,2.036 35.496,3.921 L35.496,32.079 C35.496,33.963 33.963,35.496 32.079,35.496 ZM34.130,3.921 C34.130,2.790 33.210,1.870 32.079,1.870 L3.921,1.870 C2.790,1.870 1.870,2.790 1.870,3.921 L1.870,32.079 C1.870,33.210 2.790,34.129 3.921,34.129 L32.079,34.129 C33.210,34.129 34.130,33.210 34.130,32.079 L34.130,3.921 ZM26.201,30.985 L9.799,30.985 C7.914,30.985 6.381,29.452 6.381,27.568 L6.381,11.165 C6.381,9.281 7.914,7.748 9.799,7.748 L26.201,7.748 C28.086,7.748 29.619,9.281 29.619,11.165 L29.619,27.568 C29.619,29.452 28.086,30.985 26.201,30.985 ZM28.252,11.165 C28.252,10.035 27.332,9.115 26.201,9.115 L9.799,9.115 C8.668,9.115 7.748,10.035 7.748,11.165 L7.748,27.568 C7.748,28.699 8.668,29.619 9.799,29.619 L26.201,29.619 C27.332,29.619 28.252,28.699 28.252,27.568 L28.252,11.165 ZM24.835,14.582 C23.704,14.582 22.784,13.663 22.784,12.532 C22.784,11.401 23.704,10.482 24.835,10.482 C25.965,10.482 26.885,11.401 26.885,12.532 C26.885,13.663 25.965,14.582 24.835,14.582 ZM24.835,11.849 C24.457,11.849 24.151,12.155 24.151,12.532 C24.151,12.909 24.457,13.216 24.835,13.216 C25.212,13.216 25.518,12.909 25.518,12.532 C25.518,12.155 25.212,11.849 24.835,11.849 ZM18.000,25.518 C14.608,25.518 11.849,22.758 11.849,19.367 C11.849,15.975 14.608,13.216 18.000,13.216 C21.392,13.216 24.151,15.975 24.151,19.367 C24.151,22.758 21.392,25.518 18.000,25.518 ZM18.000,14.582 C15.362,14.582 13.216,16.729 13.216,19.367 C13.216,22.005 15.362,24.151 18.000,24.151 C20.638,24.151 22.784,22.005 22.784,19.367 C22.784,16.729 20.638,14.582 18.000,14.582 ZM26.201,4.809 C25.824,4.809 25.518,4.503 25.518,4.126 C25.518,3.748 25.824,3.442 26.201,3.442 C26.579,3.442 26.885,3.748 26.885,4.126 C26.885,4.503 26.579,4.809 26.201,4.809 ZM23.468,4.809 L9.799,4.809 C9.421,4.809 9.115,4.503 9.115,4.126 C9.115,3.748 9.421,3.442 9.799,3.442 L23.468,3.442 C23.845,3.442 24.151,3.748 24.151,4.126 C24.151,4.503 23.845,4.809 23.468,4.809 Z"/>
</svg>