<?xml version="1.0" encoding="utf-8"?>
<!-- Generator: Adobe Illustrator 22.0.1, SVG Export Plug-In . SVG Version: 6.00 Build 0)  -->
<svg  xmlns="http://www.w3.org/2000/svg" xmlns:xlink="http://www.w3.org/1999/xlink" x="0px" y="0px"
	 width="36px" height="36px" viewBox="0 0 512 512" style="enable-background:new 0 0 512 512; fill: #ff192f;" xml:space="preserve">
<style type="text/css">
	.st0{clip-path:url(#SVGID_2_);}
</style>
<path d="M386,53c0,5.5-4.5,10-10,10s-10-4.5-10-10c0-5.5,4.5-10,10-10S386,47.5,386,53L386,53z M386,53"/>
<path d="M462,0H50C22.4,0,0,22.4,0,50v412c0,27.6,22.4,50,50,50h412c27.6,0,50-22.4,50-50V50C512,22.4,489.6,0,462,0L462,0z
	 M492,462c0,16.5-13.5,30-30,30H50c-16.5,0-30-13.5-30-30V50c0-16.5,13.5-30,30-30h412c16.5,0,30,13.5,30,30V462z M492,462"/>
<path d="M136,63h200c5.5,0,10-4.5,10-10c0-5.5-4.5-10-10-10H136c-5.5,0-10,4.5-10,10C126,58.5,130.5,63,136,63L136,63z M136,63"/>
<g>
	<g>
		<defs>
			<rect id="SVGID_1_" x="134" y="81" width="240" height="384"/>
		</defs>
		<clipPath id="SVGID_2_">
			<use xlink:href="#SVGID_1_"  style="overflow:visible;"/>
		</clipPath>
		<path class="st0" d="M369.6,280.7c-9.7-18.9-33.3-26.1-56.4-7.9c-0.2,0.2-23.1,17.7-59.1,17.7c-36,0-58.9-17.6-59.1-17.7
			c-23-18.2-46.8-11.1-56.4,8c0,0,0,0.1-0.1,0.2c-14.3,29.3,9.3,44.6,28.4,56.8c11.8,7.6,26.8,13.3,44.9,17.1l-51.3,51.4
			c-31,30.9,17.6,79.6,48.8,49.1l45-45.3c17.3,17.4,33.5,33.6,45.1,45.4c30.9,30.3,79.7-17.6,48.9-49.2
			c-36.7-36.7-44.6-44.6-51.6-51.4C335,346.6,388.4,319.8,369.6,280.7L369.6,280.7z M273.2,334.4c-8.3-4-19.3,11.1-10.2,20.6
			l0.1,0.1c0,0,0,0.1,0.1,0.1c0,0,0,0.1,0.1,0.1c4.6,4.6,66.6,66.5,68,67.9c8.6,8.8-6.6,23.5-14.9,15.3
			c-14.9-15.1-38.5-38.8-53.6-53.9c-4.7-4.7-12.3-4.7-17,0l-53.4,53.7c-8.5,8.3-23.6-6.5-15-15.1l67.9-68c0,0,0.1-0.1,0.1-0.1
			c8.4-8.3-0.1-23.6-10-20.7c-23.6-2.8-42.8-8.5-55.5-16.7c-24.6-15.9-23.4-18.7-19.8-26c10.4-19.9,28.7,23,94.1,23
			c44.8,0,72.9-22,74-22.9c7.3-5.7,15.9-8.4,20.1-0.2c3.6,7.4,4.9,10.2-19.8,26.2C311.4,328.4,287.6,332.7,273.2,334.4L273.2,334.4z
			 M273.2,334.4"/>
	</g>
	<path d="M254,241c31.3,0,56.7-25.5,56.7-56.8c0-31.4-25.4-57-56.7-57c-31.2,0-56.7,25.6-56.7,57C197.3,215.5,222.7,241,254,241
		L254,241z M254,151.2c18,0,32.7,14.8,32.7,33c0,18.1-14.7,32.8-32.7,32.8c-18,0-32.7-14.7-32.7-32.8C221.3,166,236,151.2,254,151.2
		L254,151.2z M254,151.2"/>
	<path d="M254,287.1c56.8,0,103-46.2,103-103C357,127.3,310.8,81,254,81c-56.8,0-103,46.3-103,103.2
		C151,240.9,197.2,287.1,254,287.1L254,287.1z M254,105c43.6,0,79,35.5,79,79.2c0,43.5-35.4,79-79,79c-43.6,0-79-35.4-79-79
		C175,140.5,210.4,105,254,105L254,105z M254,105"/>
</g>
</svg>
