<svg
        xmlns="http://www.w3.org/2000/svg"
        xmlns:xlink="http://www.w3.org/1999/xlink"
        width="37px" height="36px">
    <path fill-rule="evenodd"  fill="rgb(255, 25, 47)"
          d="M25.678,21.357 C19.974,21.357 15.333,16.680 15.333,10.931 C15.333,5.182 19.974,0.505 25.678,0.505 C31.382,0.505 36.023,5.182 36.023,10.931 C36.023,16.680 31.382,21.357 25.678,21.357 ZM25.678,1.907 C20.747,1.907 16.735,5.955 16.735,10.931 C16.735,15.906 20.747,19.955 25.678,19.955 C30.609,19.955 34.621,15.906 34.621,10.931 C34.621,5.955 30.609,1.907 25.678,1.907 ZM29.551,13.602 L28.332,13.602 L28.332,14.838 C28.332,15.771 27.577,16.530 26.649,16.530 L24.707,16.530 C23.779,16.530 23.024,15.771 23.024,14.838 L23.024,13.602 L21.805,13.602 C20.877,13.602 20.122,12.843 20.122,11.911 L20.122,9.951 C20.122,9.018 20.877,8.259 21.805,8.259 L23.024,8.259 L23.024,7.024 C23.024,6.090 23.779,5.332 24.707,5.332 L26.649,5.332 C27.577,5.332 28.332,6.090 28.332,7.024 L28.332,8.259 L29.551,8.259 C30.479,8.259 31.234,9.018 31.235,9.951 L31.235,11.911 C31.235,12.843 30.479,13.602 29.551,13.602 ZM29.833,9.951 C29.833,9.792 29.706,9.662 29.551,9.662 L27.631,9.662 C27.244,9.662 26.930,9.348 26.930,8.961 L26.930,7.024 C26.930,6.864 26.804,6.735 26.649,6.735 L24.707,6.735 C24.552,6.735 24.426,6.864 24.426,7.024 L24.426,8.961 C24.426,9.348 24.112,9.662 23.725,9.662 L21.805,9.662 C21.650,9.662 21.524,9.792 21.524,9.951 L21.524,11.911 C21.524,12.070 21.650,12.200 21.805,12.200 L23.725,12.200 C24.112,12.200 24.426,12.514 24.426,12.901 L24.426,14.838 C24.426,14.998 24.552,15.128 24.707,15.128 L26.649,15.128 C26.804,15.128 26.930,14.998 26.930,14.838 L26.930,12.901 C26.930,12.514 27.244,12.200 27.631,12.200 L29.551,12.200 C29.706,12.200 29.833,12.070 29.833,11.911 L29.833,9.951 ZM9.426,15.773 L16.914,25.337 C17.659,24.058 18.951,23.210 20.437,23.043 C22.004,22.868 23.523,23.495 24.502,24.721 C24.539,24.766 24.576,24.814 24.612,24.863 L26.827,27.855 C28.001,29.440 27.674,31.692 26.098,32.874 C25.936,32.993 22.501,35.494 19.160,35.494 C18.846,35.494 18.533,35.472 18.224,35.424 C16.845,35.210 15.720,34.514 14.879,33.358 L10.084,26.997 C9.850,26.688 9.912,26.249 10.221,26.015 C10.530,25.782 10.970,25.844 11.203,26.153 L16.002,32.518 C16.004,32.521 16.007,32.525 16.009,32.528 C16.632,33.387 17.427,33.881 18.440,34.038 C21.472,34.509 25.224,31.776 25.261,31.749 C26.218,31.031 26.417,29.657 25.700,28.690 L23.485,25.698 C23.460,25.663 23.434,25.629 23.407,25.596 C22.720,24.736 21.695,24.313 20.593,24.437 C19.467,24.563 18.500,25.249 18.004,26.271 L17.676,26.948 C17.571,27.166 17.361,27.314 17.120,27.340 C16.879,27.365 16.643,27.266 16.494,27.075 L7.594,15.707 C7.440,15.510 7.402,15.247 7.495,15.015 C7.587,14.783 7.796,14.618 8.043,14.581 L8.783,14.472 C9.890,14.307 10.829,13.591 11.293,12.556 C11.754,11.526 11.669,10.401 11.059,9.471 C11.036,9.436 11.012,9.401 10.987,9.366 L8.832,6.329 C8.495,5.854 7.996,5.541 7.426,5.447 C6.858,5.354 6.287,5.489 5.818,5.829 C5.759,5.872 -0.536,10.595 2.271,14.485 L7.361,21.103 C7.597,21.410 7.539,21.850 7.233,22.086 C6.926,22.322 6.486,22.265 6.250,21.958 L1.153,15.332 C1.149,15.327 1.145,15.322 1.141,15.316 C-0.390,13.204 -0.174,10.668 1.764,7.981 C3.145,6.067 4.917,4.751 4.991,4.696 C5.770,4.132 6.714,3.908 7.654,4.063 C8.596,4.219 9.420,4.735 9.975,5.517 L12.130,8.554 C12.165,8.603 12.199,8.652 12.231,8.703 C13.096,10.021 13.223,11.676 12.572,13.130 C11.973,14.466 10.816,15.429 9.426,15.773 ZM8.694,23.363 C8.987,23.347 9.268,23.523 9.379,23.795 C9.506,24.100 9.395,24.463 9.121,24.647 C8.875,24.811 8.539,24.801 8.305,24.619 C8.077,24.442 7.977,24.137 8.061,23.860 C8.146,23.580 8.403,23.379 8.694,23.363 Z"/>
</svg>