<svg
        xmlns="http://www.w3.org/2000/svg"
        xmlns:xlink="http://www.w3.org/1999/xlink"
        width="28px" height="36px">
    <path fill-rule="evenodd"  fill="rgb(255, 255, 255)"
          d="M24.044,23.199 C23.878,23.378 21.277,25.699 18.782,27.918 L21.601,27.918 C23.626,27.918 25.274,29.564 25.274,31.587 C25.274,33.611 23.626,35.257 21.601,35.257 L17.046,35.257 C16.668,35.257 16.362,34.951 16.362,34.573 C16.362,34.195 16.668,33.889 17.046,33.889 L21.601,33.889 C22.871,33.889 23.905,32.857 23.905,31.587 C23.905,30.318 22.871,29.285 21.601,29.285 L17.243,29.285 C15.971,30.415 14.889,31.374 14.406,31.802 C14.276,31.917 14.114,31.975 13.951,31.975 C13.789,31.975 13.627,31.917 13.497,31.802 C13.014,31.374 11.932,30.414 10.660,29.285 C10.650,29.285 10.640,29.286 10.630,29.286 L6.302,29.286 C5.032,29.286 3.998,30.318 3.998,31.587 C3.998,32.857 5.032,33.889 6.302,33.889 L10.857,33.889 C11.236,33.889 11.542,34.196 11.542,34.573 C11.542,34.951 11.236,35.257 10.857,35.257 L6.302,35.257 C4.277,35.257 2.629,33.611 2.629,31.587 C2.629,29.564 4.277,27.918 6.302,27.918 L9.121,27.918 C6.626,25.699 4.024,23.377 3.857,23.198 C1.514,20.668 0.224,17.375 0.224,13.925 C0.224,10.269 1.652,6.832 4.245,4.249 C6.839,1.665 10.285,0.242 13.951,0.242 C17.612,0.242 21.056,1.661 23.647,4.238 C23.650,4.241 23.653,4.244 23.656,4.248 L23.663,4.254 C26.184,6.769 27.610,10.112 27.677,13.666 C27.744,17.212 26.454,20.598 24.044,23.199 ZM22.691,5.218 C22.688,5.215 22.685,5.212 22.683,5.209 L22.677,5.203 C20.344,2.886 17.246,1.610 13.951,1.610 C10.650,1.610 7.547,2.891 5.212,5.218 C2.878,7.542 1.593,10.635 1.593,13.925 C1.593,17.027 2.752,19.989 4.858,22.264 C5.171,22.577 10.299,27.138 13.951,30.377 C17.604,27.138 22.731,22.578 23.044,22.265 C27.551,17.394 27.397,9.907 22.691,5.218 ZM13.952,23.841 C8.513,23.841 4.089,19.420 4.089,13.987 C4.089,8.553 8.513,4.133 13.952,4.133 C19.390,4.133 23.814,8.553 23.814,13.987 C23.814,19.420 19.390,23.841 13.952,23.841 ZM13.952,5.500 C9.268,5.500 5.458,9.308 5.458,13.987 C5.458,18.666 9.268,22.473 13.952,22.473 C18.635,22.473 22.445,18.666 22.445,13.987 C22.445,9.308 18.635,5.500 13.952,5.500 ZM17.647,16.555 L16.500,16.555 L16.500,17.725 C16.500,18.624 15.772,19.356 14.878,19.356 L13.025,19.356 C12.131,19.356 11.403,18.624 11.403,17.725 L11.403,16.555 L10.256,16.555 C9.361,16.555 8.634,15.824 8.634,14.924 L8.634,13.050 C8.634,12.150 9.361,11.418 10.256,11.418 L11.403,11.418 L11.403,10.249 C11.403,9.350 12.131,8.618 13.025,8.618 L14.878,8.618 C15.772,8.618 16.500,9.350 16.500,10.249 L16.500,11.418 L17.647,11.418 C18.542,11.418 19.269,12.150 19.269,13.050 L19.269,14.924 C19.269,15.824 18.542,16.555 17.647,16.555 ZM17.901,13.050 C17.901,12.905 17.787,12.786 17.647,12.786 L15.815,12.786 C15.437,12.786 15.131,12.480 15.131,12.102 L15.131,10.249 C15.131,10.104 15.018,9.986 14.878,9.986 L13.025,9.986 C12.886,9.986 12.772,10.104 12.772,10.249 L12.772,12.102 C12.772,12.480 12.466,12.786 12.088,12.786 L10.256,12.786 C10.116,12.786 10.003,12.905 10.003,13.050 L10.003,14.924 C10.003,15.069 10.116,15.188 10.256,15.188 L12.088,15.188 C12.466,15.188 12.772,15.494 12.772,15.871 L12.772,17.725 C12.772,17.870 12.886,17.988 13.025,17.988 L14.878,17.988 C15.018,17.988 15.131,17.870 15.131,17.725 L15.131,15.871 C15.131,15.494 15.437,15.188 15.815,15.188 L17.647,15.188 C17.787,15.188 17.901,15.069 17.901,14.924 L17.901,13.050 ZM13.928,33.891 C14.214,33.875 14.486,34.047 14.597,34.311 C14.719,34.609 14.614,34.962 14.344,35.141 C14.101,35.302 13.779,35.291 13.547,35.116 C13.323,34.945 13.228,34.643 13.310,34.375 C13.392,34.102 13.643,33.906 13.928,33.891 Z"/>
</svg>