<svg
        xmlns="http://www.w3.org/2000/svg"
        xmlns:xlink="http://www.w3.org/1999/xlink"
        width="28px" height="25px">
    <path fill-rule="evenodd"  fill="rgb(255, 25, 47)"
          d="M21.443,22.874 C15.273,27.404 21.930,21.898 23.417,13.362 C22.746,13.592 22.027,13.723 21.277,13.723 C17.624,13.723 14.662,10.761 14.662,7.109 C14.662,3.456 17.623,0.495 21.277,0.495 C24.929,0.495 27.889,3.456 27.889,7.109 C27.889,7.112 27.888,7.116 27.888,7.119 C27.896,7.312 28.285,17.849 21.443,22.874 ZM6.895,22.874 C0.725,27.404 7.381,21.898 8.869,13.362 C8.196,13.592 7.477,13.723 6.727,13.723 C3.075,13.723 0.114,10.761 0.114,7.109 C0.114,3.456 3.075,0.495 6.727,0.495 C10.379,0.495 13.340,3.456 13.340,7.109 C13.340,7.112 13.340,7.116 13.340,7.119 C13.348,7.312 13.737,17.849 6.895,22.874 Z"/>
</svg>