<svg
        xmlns="http://www.w3.org/2000/svg"
        xmlns:xlink="http://www.w3.org/1999/xlink"
        width="36px" height="36px">
    <path fill-rule="evenodd"  fill="#ff192f"
          d="M32.090,35.510 L3.910,35.510 C2.024,35.510 0.490,33.976 0.490,32.090 L0.490,3.909 C0.490,2.024 2.024,0.489 3.910,0.489 L32.090,0.489 C33.976,0.489 35.510,2.024 35.510,3.909 L35.510,32.090 C35.510,33.976 33.976,35.510 32.090,35.510 ZM34.142,3.909 C34.142,2.778 33.222,1.858 32.090,1.858 L3.910,1.858 C2.778,1.858 1.857,2.778 1.857,3.909 L1.857,32.090 C1.857,33.222 2.778,34.142 3.910,34.142 L32.090,34.142 C33.222,34.142 34.142,33.222 34.142,32.090 L34.142,3.909 ZM29.627,26.179 C29.644,26.568 29.333,26.885 28.944,26.885 L25.529,26.885 C25.096,26.891 24.342,26.783 23.920,26.569 C23.147,26.174 22.660,25.573 22.189,24.992 C21.862,24.588 21.553,24.207 21.164,23.917 C21.028,23.816 20.906,23.765 20.837,23.781 C20.760,23.798 20.620,23.914 20.477,24.186 C20.218,24.677 20.052,25.028 20.052,26.208 C20.052,26.586 19.746,26.892 19.368,26.892 C16.084,26.892 13.451,25.696 11.317,23.235 C9.255,20.858 7.785,17.460 6.504,14.142 C6.423,13.932 6.450,13.695 6.578,13.509 C6.706,13.323 6.917,13.212 7.142,13.212 L11.232,13.212 C11.514,13.212 11.768,13.385 11.870,13.648 C12.148,14.366 12.744,16.096 13.454,17.536 C14.279,19.211 14.736,19.409 14.794,19.428 C14.821,19.410 15.096,19.183 15.212,18.050 C15.294,17.246 15.254,16.346 15.178,15.809 C15.059,14.969 14.911,14.791 14.493,14.651 C14.262,14.573 14.089,14.378 14.041,14.138 C13.992,13.899 14.076,13.652 14.259,13.490 C14.527,13.253 15.074,12.984 16.935,13.003 C17.720,13.011 18.822,13.072 19.633,13.255 C20.223,13.388 20.167,14.021 20.241,14.214 C20.348,14.740 20.303,15.479 20.251,16.334 C20.207,17.065 20.161,17.821 20.213,18.447 C20.262,19.044 20.382,19.275 20.451,19.361 L20.485,19.371 C20.696,19.282 21.297,18.775 22.214,17.158 C22.921,15.910 23.504,14.547 23.653,14.044 C23.739,13.754 24.004,13.562 24.306,13.561 C25.547,13.554 28.911,13.554 28.913,13.554 C29.239,13.554 29.519,13.783 29.584,14.103 C29.790,15.131 28.793,16.573 27.247,18.655 C26.765,19.304 26.309,19.917 26.081,20.318 C25.898,20.641 25.846,20.851 26.085,21.173 C26.710,21.959 29.544,24.158 29.627,26.179 ZM24.892,19.642 C25.162,19.168 25.619,18.552 26.148,17.839 C26.790,16.975 27.677,15.801 28.078,14.916 C27.169,14.915 25.784,14.918 24.796,14.920 C24.496,15.704 23.938,16.905 23.338,17.947 C21.867,20.503 20.958,20.774 20.401,20.752 C20.095,20.741 19.600,20.440 19.573,20.416 C18.680,19.633 18.785,17.915 18.885,16.251 C18.927,15.568 18.970,14.861 18.904,14.505 C18.220,14.404 17.056,14.347 16.187,14.381 C16.390,14.769 16.474,15.204 16.533,15.618 C16.538,15.652 16.975,19.013 15.866,20.290 C15.578,20.622 15.206,20.797 14.792,20.797 C13.107,20.797 11.781,17.333 10.759,14.580 L8.144,14.580 C9.294,17.474 10.613,20.335 12.351,22.339 C14.089,24.344 16.122,25.360 18.707,25.505 C18.765,24.686 18.905,24.234 19.267,23.548 C19.913,22.325 21.011,22.097 21.981,22.820 C22.508,23.212 22.886,23.679 23.252,24.131 C23.668,24.644 24.027,25.087 24.540,25.349 C24.709,25.435 25.228,25.531 25.513,25.524 C25.517,25.524 25.520,25.524 25.524,25.524 L28.041,25.524 C27.339,24.116 25.655,22.838 25.006,22.013 C25.003,22.009 25.000,22.006 24.997,22.002 C24.474,21.309 24.390,20.523 24.892,19.642 ZM26.208,4.799 C25.830,4.799 25.524,4.492 25.524,4.115 C25.524,3.737 25.830,3.431 26.208,3.431 C26.586,3.431 26.892,3.737 26.892,4.115 C26.892,4.492 26.586,4.799 26.208,4.799 ZM23.472,4.799 L9.792,4.799 C9.414,4.799 9.108,4.492 9.108,4.115 C9.108,3.737 9.414,3.431 9.792,3.431 L23.472,3.431 C23.850,3.431 24.156,3.737 24.156,4.115 C24.156,4.492 23.850,4.799 23.472,4.799 Z"/>
</svg>